<svg width="0" height="0" class="hidden">
  <symbol xmlns="http://www.w3.org/2000/svg" viewBox="0 0 126.953 126.953" id="pokecoin">
    <circle cx="63.477" cy="63.476" r="61.977" fill="#ffd00b"></circle>
    <path d="M63.477 1.5v123.953c34.229 0 61.977-27.748 61.977-61.978C125.453 29.247 97.705 1.5 63.477 1.5z" fill="#ffbe08"></path>
    <path d="M63.477 126.953C28.476 126.953 0 98.477 0 63.476S28.476 0 63.477 0s63.477 28.475 63.477 63.476c-.001 35.001-28.476 63.477-63.477 63.477zM63.477 3C30.13 3 3 30.129 3 63.476c0 33.348 27.13 60.478 60.477 60.478s60.477-27.13 60.477-60.478C123.953 30.129 96.823 3 63.477 3z" fill="#33363a"></path>
    <circle cx="63.477" cy="63.477" r="47.978" fill="#ffd00b"></circle>
    <path d="M29.553 29.552l67.85 67.851c18.736-18.736 18.736-49.114 0-67.852-18.737-18.736-49.114-18.737-67.85.001z" fill="#ffbe08"></path>
    <path d="M63.477 11.781a1.5 1.5 0 01-1.5-1.5V6.759a1.5 1.5 0 113 0v3.522a1.5 1.5 0 01-1.5 1.5zm0 109.914a1.5 1.5 0 01-1.5-1.5v-3.522a1.5 1.5 0 113 0v3.522a1.5 1.5 0 01-1.5 1.5zm37.615-94.334a1.5 1.5 0 01-1.061-2.56l2.49-2.49a1.5 1.5 0 112.121 2.121l-2.49 2.49a1.493 1.493 0 01-1.06.439zm-77.721 77.721a1.5 1.5 0 01-1.061-2.56l2.49-2.49a1.5 1.5 0 112.121 2.121l-2.49 2.49a1.491 1.491 0 01-1.06.439zm96.824-40.105h-3.523a1.5 1.5 0 110-3h3.523a1.5 1.5 0 110 3zm-109.914 0H6.758a1.5 1.5 0 110-3h3.523a1.5 1.5 0 110 3zm93.301 40.105c-.384 0-.768-.146-1.061-.439l-2.49-2.49a1.5 1.5 0 112.121-2.121l2.49 2.49a1.5 1.5 0 01-1.06 2.56zM25.861 27.361c-.384 0-.768-.146-1.061-.439l-2.49-2.49a1.5 1.5 0 112.121-2.121l2.49 2.49a1.5 1.5 0 01-1.06 2.56zm11.019-8.452a1.5 1.5 0 01-1.3-.75l-1.762-3.051a1.5 1.5 0 112.598-1.5l1.762 3.051a1.5 1.5 0 01-1.298 2.25zm54.957 95.187c-.519 0-1.022-.27-1.301-.751l-1.76-3.051a1.501 1.501 0 012.6-1.499l1.76 3.051a1.501 1.501 0 01-1.299 2.25zM77.247 13.594a1.502 1.502 0 01-1.451-1.888l.91-3.402a1.5 1.5 0 112.899.775l-.91 3.402a1.5 1.5 0 01-1.448 1.113zM48.8 119.762a1.502 1.502 0 01-1.451-1.888l.91-3.402a1.5 1.5 0 112.899.775l-.91 3.402a1.501 1.501 0 01-1.448 1.113zm60.746-81.383a1.5 1.5 0 01-.751-2.799l3.051-1.762a1.5 1.5 0 111.5 2.598l-3.051 1.762a1.496 1.496 0 01-.749.201zM14.358 93.336a1.5 1.5 0 01-.751-2.799l3.051-1.761a1.5 1.5 0 011.5 2.598l-3.051 1.761a1.496 1.496 0 01-.749.201zm103.905-13.679a1.5 1.5 0 01-.39-.052l-3.402-.912a1.501 1.501 0 01-1.061-1.837 1.504 1.504 0 011.838-1.061l3.402.912a1.501 1.501 0 01-.387 2.95zM12.095 51.208c-.129 0-.259-.017-.389-.052l-3.402-.911a1.501 1.501 0 01-1.062-1.837 1.504 1.504 0 011.837-1.061l3.402.911a1.501 1.501 0 01-.386 2.95zm5.312-12.829c-.255 0-.513-.065-.749-.202l-3.051-1.762a1.5 1.5 0 111.5-2.598l3.051 1.762a1.5 1.5 0 01-.751 2.8zm95.188 54.957c-.255 0-.513-.065-.749-.202l-3.049-1.762a1.5 1.5 0 111.5-2.597l3.049 1.762a1.5 1.5 0 01-.751 2.799zM49.708 13.594a1.5 1.5 0 01-1.448-1.112l-.912-3.401a1.5 1.5 0 012.899-.777l.912 3.401a1.5 1.5 0 01-1.451 1.889zm28.449 106.168a1.5 1.5 0 01-1.448-1.112l-.912-3.402a1.5 1.5 0 012.899-.776l.912 3.402a1.5 1.5 0 01-1.451 1.888zM90.073 18.908a1.5 1.5 0 01-1.298-2.251l1.762-3.05a1.5 1.5 0 012.598 1.501l-1.762 3.05a1.5 1.5 0 01-1.3.75zm-54.957 95.188a1.5 1.5 0 01-1.298-2.251l1.762-3.049a1.5 1.5 0 012.598 1.501l-1.762 3.049a1.5 1.5 0 01-1.3.75zm79.742-62.888a1.5 1.5 0 01-.386-2.949l3.402-.911a1.5 1.5 0 11.775 2.898l-3.402.911a1.49 1.49 0 01-.389.051zM8.69 79.658a1.501 1.501 0 01-.387-2.949l3.402-.913a1.5 1.5 0 11.777 2.897l-3.402.913a1.5 1.5 0 01-.39.052zm74.867-7.24a1.5 1.5 0 01-1.5-1.5c0-.25-.202-.453-.451-.453s-.451.203-.451.453a1.5 1.5 0 11-3 0c0-1.904 1.548-3.453 3.451-3.453s3.451 1.549 3.451 3.453a1.5 1.5 0 01-1.5 1.5z" fill="#33363a"></path>
    <circle cx="79.354" cy="81.692" r="5.238" fill="#e04038"></circle>
    <path d="M79.354 76.455a5.238 5.238 0 110 10.476" fill="#ff6155"></path>
    <path d="M79.354 88.432a6.746 6.746 0 01-6.738-6.739c0-3.715 3.022-6.737 6.738-6.737s6.738 3.022 6.738 6.737c0 3.715-3.023 6.739-6.738 6.739zm0-10.477a3.742 3.742 0 00-3.738 3.737c0 2.062 1.677 3.739 3.738 3.739s3.738-1.677 3.738-3.739a3.742 3.742 0 00-3.738-3.737z" fill="#33363a"></path>
    <path d="M98.463 28.49c-19.291-19.291-50.68-19.291-69.971.001-18.263 18.263-19.225 47.362-2.91 66.781.047.064.099.125.156.182a49.431 49.431 0 002.752 3.008c9.646 9.646 22.316 14.468 34.987 14.468 12.67 0 25.34-4.823 34.985-14.468 19.292-19.29 19.292-50.68.001-69.972zm-12.544 75.677c-17.661 9.73-40.352 7.129-55.308-7.825a46.987 46.987 0 01-1.877-2.002c5.145-6.625 8.946-12.537 12.304-17.775 4.016-6.263 7.187-11.209 11.167-15.106a1.499 1.499 0 00-.405-2.426 30.006 30.006 0 01-6.841-4.496c-.006-.005-.009-.014-.015-.019-.472-.411-.925-.82-1.36-1.245-.057-.056-.119-.105-.175-.161a29.069 29.069 0 01-1.481-1.602c-.13-.151-.253-.308-.38-.461a30.355 30.355 0 01-1-1.266 27.597 27.597 0 01-.376-.522 30.278 30.278 0 01-.915-1.363c-.095-.151-.192-.301-.285-.453a30.439 30.439 0 01-2.254-4.539l4.384-4.383a30.183 30.183 0 0110.208 6.686 29.951 29.951 0 016.566 9.911 1.5 1.5 0 002.037.785c2.669-1.279 5.491-1.455 8.143-1.455 7.165 0 19.879 5.717 25.116 16.451 4.701 9.635 2.247 21.051-7.096 33.015-.061.08-.113.164-.157.251zm-38.548-44.15c.431.265.858.535 1.301.78-.287.312-.567.64-.848.963a26.229 26.229 0 00-.453-1.743zm-2.287 3.269a24.14 24.14 0 01-12.602-6.638 24.008 24.008 0 01-4.679-6.656L31.796 46a24.04 24.04 0 014.448 2.754c.095.159.201.31.298.467.186.302.377.6.573.896.133.2.265.401.403.598.319.46.647.913.99 1.357.086.111.177.219.265.329a33.446 33.446 0 001.273 1.512c.401.448.81.889 1.237 1.315l.002.002.001.001.002.002c.37.371.746.713 1.125 1.05.122.111.239.229.363.339a24.01 24.01 0 012.308 6.664zm51.258 33.056a46.734 46.734 0 01-3.649 3.281c6.817-11.295 6.642-20.354 4.488-26.822 1.44-1.214 1.834-3.325.826-4.985-.896-1.472-2.619-2.12-4.213-1.747-6.254-9.113-17.616-14.62-25.737-14.62-2.559 0-5.274.154-8.006 1.147a32.834 32.834 0 00-6.619-9.51 33.212 33.212 0 00-12.13-7.711c-.018-.007-.033-.02-.052-.026-.106-.038-.214-.068-.32-.105a31.7 31.7 0 00-1.359-.444c-.126-.038-.251-.078-.377-.115a33.13 33.13 0 00-1.765-.461c-.089-.021-.178-.037-.267-.057a32.602 32.602 0 00-1.984-.379 33.13 33.13 0 00-1.785-.241 1.504 1.504 0 00-1.647 1.644v.003l.003.023c.072.688.168 1.374.284 2.059.037.222.089.44.131.661.09.471.18.941.291 1.409.056.238.124.472.185.708.117.453.237.906.373 1.355.063.208.135.413.203.62.11.34.211.682.333 1.018.016.045.044.082.064.125.056.152.101.309.16.46a27.841 27.841 0 00-1.68-.786c-.012-.005-.021-.014-.033-.019-.037-.016-.075-.027-.112-.043a27.124 27.124 0 00-1.784-.688l-.045-.015a26.724 26.724 0 00-1.803-.544l-.168-.046a27.24 27.24 0 00-1.775-.393l-.339-.06a26.481 26.481 0 00-1.805-.258 1.507 1.507 0 00-1.216.431 1.505 1.505 0 00-.432 1.212v.003l.002.014c.073.703.18 1.405.31 2.103.063.34.148.675.224 1.012.078.342.151.684.242 1.024.116.437.253.866.391 1.296.074.228.144.456.224.683.163.466.342.924.53 1.379.043.104.076.211.121.315.013.03.034.055.049.084 1.348 3.124 3.257 6.001 5.686 8.429a27.136 27.136 0 0013.979 7.426c-1.921 2.668-3.805 5.595-5.828 8.751-3.233 5.043-6.883 10.718-11.74 17.026-14.161-18.218-12.89-44.629 3.841-61.359 9.062-9.062 20.961-13.591 32.864-13.591 11.9 0 23.805 4.531 32.864 13.59 18.123 18.126 18.123 47.612.002 65.734z" fill="#33363a"></path>
    <path d="M44.938 90.231a1.501 1.501 0 01-1.341-.826c-.118-.232-2.906-5.584-8.223-4.063a1.499 1.499 0 11-.824-2.884c6.18-1.766 10.374 2.893 11.729 5.603a1.5 1.5 0 01-1.341 2.17zm-3.951 5.688a1.501 1.501 0 01-1.341-.826c-.118-.232-2.916-5.581-8.225-4.064a1.5 1.5 0 01-.824-2.885c6.19-1.765 10.377 2.894 11.73 5.604a1.5 1.5 0 01-1.34 2.171zm41.675-56.913a1.5 1.5 0 01-1.42-1.984l.242-.712a1.5 1.5 0 012.84.966l-.242.712a1.5 1.5 0 01-1.42 1.018zm-3.639 10.666a1.5 1.5 0 01-1.42-1.985l1.426-4.18a1.5 1.5 0 012.84.969l-1.426 4.18a1.5 1.5 0 01-1.42 1.016zM61.729 36.139a1.5 1.5 0 01-1.345-.834l-.336-.678a1.5 1.5 0 012.688-1.332l.336.678a1.5 1.5 0 01-1.343 2.166zm4.969 10.115a1.503 1.503 0 01-1.348-.839l-1.949-3.971a1.5 1.5 0 112.694-1.322l1.949 3.971a1.5 1.5 0 01-1.346 2.161zm34.285 3.278a1.5 1.5 0 01-.661-2.847l.678-.333a1.5 1.5 0 011.32 2.694l-.678.332a1.493 1.493 0 01-.659.154zM90.872 54.5a1.5 1.5 0 01-.663-2.846l3.963-1.949a1.5 1.5 0 011.324 2.692l-3.963 1.949a1.488 1.488 0 01-.661.154z" fill="#33363a"></path>
  </symbol>
  <symbol xmlns="http://www.w3.org/2000/svg" viewBox="-10 0 422 422.501" id="avatar">
    <path d="M307.45 167.254c0 84.832-68.77 153.601-153.598 153.601C69.02 320.855.25 252.085.25 167.254c0-84.828 68.77-153.598 153.602-153.598 84.828 0 153.597 68.77 153.597 153.598zm0 0" fill="#c1dbdc"></path>
    <g fill="#4c241d">
      <path d="M396.406 368.64h-20.605a6.82 6.82 0 01-6.824-6.824 6.824 6.824 0 016.824-6.828h20.605a6.824 6.824 0 016.824 6.828 6.82 6.82 0 01-6.824 6.825zm-48.078 0h-20.601a6.824 6.824 0 01-6.829-6.824 6.828 6.828 0 016.829-6.828h20.601a6.828 6.828 0 016.828 6.828 6.824 6.824 0 01-6.828 6.825zm13.735-13.734a6.82 6.82 0 01-6.825-6.824v-20.605c0-3.774 3.055-6.829 6.824-6.829s6.829 3.055 6.829 6.829v20.605a6.824 6.824 0 01-6.829 6.824zm0 48.074a6.82 6.82 0 01-6.825-6.824v-20.61c0-3.773 3.055-6.823 6.824-6.823s6.829 3.05 6.829 6.824v20.61a6.824 6.824 0 01-6.829 6.823zm-322.036 4.38a21 21 0 01-9.902-2.493c-4.965-2.652-8.59-7.086-10.219-12.472a20.91 20.91 0 011.582-16.036 20.908 20.908 0 0112.461-10.218c11.11-3.36 22.89 2.933 26.258 14.046a20.918 20.918 0 01-1.582 16.04 20.918 20.918 0 01-12.46 10.218c-2.02.614-4.083.914-6.138.914zm.024-28.473c-.711 0-1.43.11-2.145.324-3.906 1.184-6.117 5.324-4.937 9.23a7.371 7.371 0 003.593 4.387 7.426 7.426 0 005.641.555 7.342 7.342 0 004.379-3.594 7.37 7.37 0 00.559-5.64 7.427 7.427 0 00-7.09-5.262zM381.223 42.113c-11.61 0-21.055-9.445-21.055-21.054C360.168 9.445 369.613 0 381.223 0c11.613 0 21.058 9.445 21.058 21.059 0 11.609-9.445 21.054-21.058 21.054zm0-28.457a7.409 7.409 0 00-7.403 7.406c0 4.083 3.32 7.399 7.403 7.399 4.086 0 7.406-3.316 7.406-7.398a7.41 7.41 0 00-7.406-7.407zm-79.543 7.403a9.204 9.204 0 01-9.203 9.203c-5.082 0-9.2-4.121-9.2-9.203 0-5.082 4.118-9.204 9.2-9.204a9.204 9.204 0 019.203 9.204zM29.313 66.43a6.828 6.828 0 01-4.828-11.652l20.128-20.122a6.82 6.82 0 019.653 0 6.828 6.828 0 010 9.653l-20.13 20.12a6.803 6.803 0 01-4.824 2zM205.05 54.613a6.824 6.824 0 01-6.827-6.824V6.83c0-3.774 3.058-6.829 6.828-6.829s6.828 3.055 6.828 6.828V47.79a6.824 6.824 0 01-6.828 6.824zm0 0"></path>
      <path d="M215.29 58.027c-.95 0-1.907-.191-2.821-.613a6.826 6.826 0 01-3.39-9.039l17.066-37.547c1.562-3.426 5.628-4.957 9.039-3.387a6.831 6.831 0 013.39 9.043l-17.066 37.547a6.834 6.834 0 01-6.219 3.996zm-20.477 0a6.818 6.818 0 01-6.215-4L171.53 16.48a6.824 6.824 0 013.387-9.039c3.406-1.574 7.477-.046 9.039 3.387l17.066 37.547a6.826 6.826 0 01-3.39 9.04 6.74 6.74 0 01-2.82.612zM49.438 66.43a6.803 6.803 0 01-4.825-2L24.484 44.309a6.828 6.828 0 010-9.653 6.82 6.82 0 019.653 0l20.129 20.121a6.828 6.828 0 01-4.828 11.653zm0 0"></path>
    </g>
    <path d="M345.836 130.098c9.496 16.988 14.805 35.968 14.805 55.996 0 72.613-69.805 131.476-155.914 131.476-86.11 0-155.918-58.863-155.918-131.476s69.808-131.48 155.918-131.48c39.46 0 75.496 12.363 102.96 32.745" fill="#ffce56"></path>
    <path d="M204.727 324.395c-89.735 0-162.743-62.04-162.743-138.301 0-76.258 73.008-138.305 162.743-138.305 39.402 0 77.41 12.106 107.027 34.086a6.82 6.82 0 011.418 9.547c-2.242 3.035-6.52 3.66-9.55 1.414-27.286-20.246-62.403-31.395-98.895-31.395-82.207 0-149.09 55.922-149.09 124.653 0 68.734 66.883 124.648 149.09 124.648 82.207 0 149.086-55.914 149.086-124.648 0-18.399-4.688-36.117-13.934-52.657a6.827 6.827 0 012.629-9.292c3.293-1.836 7.457-.657 9.289 2.625 10.398 18.605 15.672 38.566 15.672 59.328 0 76.257-73.004 138.297-162.742 138.297zm0 0" fill="#4c241d"></path>
    <path d="M334.543 120.066a6.8 6.8 0 01-5.355-2.593 131.457 131.457 0 00-9.004-10.211 6.838 6.838 0 01.113-9.66c2.695-2.63 7.023-2.582 9.652.113a143.781 143.781 0 019.942 11.293 6.825 6.825 0 01-1.114 9.586 6.803 6.803 0 01-4.234 1.472zm0 0" fill="#4c241d"></path>
    <path d="M280.016 260.918l3.812-11.465c4.637-13.93-4.004-28.734-18.664-31.973l-41.101-9.074-11.387-6.722c-8.524-5.032-19.23-4.938-27.656.238l-8.622 5.297-38.082 11.695c-13.265 4.07-20.754 17.73-16.851 30.738l1.82 6.078a57.028 57.028 0 01.453 31.2l-2.074 7.73c-2.031 7.563-4.883 14.863-7.777 22.156-2.953 7.442-4.582 15.391-4.582 23.68 0 41.516 39.77 75.176 88.832 75.176s88.836-33.66 88.836-75.176c0-5.605-.746-11.055-2.141-16.3-3.656-13.759-6.789-27.645-7.64-41.833a57.12 57.12 0 012.824-21.445zm0 0" fill="#ffec95"></path>
    <path d="M198.137 422.5c-52.746 0-95.664-36.785-95.664-82.008 0-8.898 1.707-17.71 5.066-26.191 3.016-7.602 5.66-14.453 7.531-21.414l2.075-7.727a50.167 50.167 0 00-.399-27.473l-1.82-6.074c-4.942-16.496 4.656-34.09 21.386-39.226l37.254-11.442 7.883-4.84a33.574 33.574 0 0134.692-.304l10.453 6.172 40.047 8.84c8.988 1.988 16.707 7.652 21.183 15.539 4.363 7.687 5.266 16.894 2.48 25.253l-3.812 11.461a50.131 50.131 0 00-2.484 18.891c.855 14.281 4.23 28.48 7.422 40.488a69.986 69.986 0 012.37 18.047c-.003 45.223-42.917 82.008-95.663 82.008zm.906-217.719c-3.617 0-7.238.989-10.453 2.961l-8.617 5.293c-.493.309-1.02.54-1.57.715l-38.087 11.691c-9.746 2.996-15.156 12.766-12.312 22.254l1.82 6.075a63.883 63.883 0 01.508 34.933l-2.074 7.727c-2.063 7.664-4.856 14.914-8.031 22.906-2.72 6.867-4.098 13.984-4.098 21.16 0 37.691 36.789 68.352 82.008 68.352 45.222 0 82.008-30.66 82.008-68.352 0-4.894-.641-9.781-1.91-14.535-3.368-12.668-6.93-27.7-7.856-43.188a63.683 63.683 0 013.16-24.011l3.813-11.461c1.586-4.774 1.09-9.82-1.403-14.207-2.57-4.532-7.039-7.793-12.254-8.946l-41.105-9.074a6.799 6.799 0 01-2.004-.785l-11.387-6.727a19.944 19.944 0 00-10.156-2.78zm0 0" fill="#4c241d"></path>
    <path d="M307.45 160.43c0-16.97-16.81-30.723-37.548-30.723-20.734 0-37.547 13.754-37.547 30.723 0 16.965 16.813 30.718 37.547 30.718 20.739 0 37.547-13.753 37.547-30.718zm0 0" fill="#fff"></path>
    <path d="M269.902 197.977c-24.464 0-44.37-16.848-44.37-37.547 0-20.703 19.906-37.547 44.37-37.547 24.47 0 44.375 16.844 44.375 37.547 0 20.699-19.906 37.547-44.375 37.547zm0-61.442c-16.937 0-30.718 10.719-30.718 23.895 0 13.172 13.78 23.89 30.718 23.89 16.942 0 30.723-10.718 30.723-23.89 0-13.176-13.781-23.895-30.723-23.895zm0 0" fill="#4c241d"></path>
    <path d="M177.742 160.43c0-16.97-16.808-30.723-37.547-30.723-20.734 0-37.547 13.754-37.547 30.723 0 16.965 16.813 30.718 37.547 30.718 20.739 0 37.547-13.753 37.547-30.718zm0 0" fill="#fff"></path>
    <path d="M140.195 197.977c-24.465 0-44.37-16.848-44.37-37.547 0-20.703 19.905-37.547 44.37-37.547 24.47 0 44.375 16.844 44.375 37.547 0 20.699-19.906 37.547-44.375 37.547zm0-61.442c-16.937 0-30.718 10.719-30.718 23.895 0 13.172 13.78 23.89 30.718 23.89 16.942 0 30.723-10.718 30.723-23.89 0-13.176-13.781-23.895-30.723-23.895zm44.383 116.055a6.826 6.826 0 01-6.113-3.774l-6.828-13.656a6.826 6.826 0 013.054-9.16c3.38-1.676 7.473-.32 9.16 3.055l6.825 13.652a6.825 6.825 0 01-6.098 9.883zm27.293 0a6.825 6.825 0 01-6.098-9.883l6.825-13.652c1.683-3.375 5.773-4.73 9.16-3.055a6.83 6.83 0 013.054 9.16l-6.828 13.656a6.83 6.83 0 01-6.113 3.774zm54.621-102.402a6.83 6.83 0 01-6.828 6.828c-3.77 0-6.828-3.059-6.828-6.828s3.059-6.825 6.828-6.825a6.827 6.827 0 016.828 6.825zm0 0" fill="#4c241d"></path>
    <path d="M150.438 150.188a6.827 6.827 0 11-13.65.002 6.827 6.827 0 0113.65-.002zm0 0" fill="#4c241d"></path>
  </symbol>
</svg>